G04 #@! TF.GenerationSoftware,KiCad,Pcbnew,(5.0.0)*
G04 #@! TF.CreationDate,2018-09-29T19:01:10+02:00*
G04 #@! TF.ProjectId,16db attenuator,3136646220617474656E7561746F722E,rev?*
G04 #@! TF.SameCoordinates,Original*
G04 #@! TF.FileFunction,Legend,Top*
G04 #@! TF.FilePolarity,Positive*
%FSLAX46Y46*%
G04 Gerber Fmt 4.6, Leading zero omitted, Abs format (unit mm)*
G04 Created by KiCad (PCBNEW (5.0.0)) date 09/29/18 19:01:10*
%MOMM*%
%LPD*%
G01*
G04 APERTURE LIST*
%ADD10C,0.300000*%
%ADD11C,0.120000*%
G04 APERTURE END LIST*
D10*
X134384285Y-97424761D02*
X134384285Y-96377142D01*
X134289047Y-96186666D01*
X134098571Y-96091428D01*
X133717619Y-96091428D01*
X133527142Y-96186666D01*
X134384285Y-97329523D02*
X134193809Y-97424761D01*
X133717619Y-97424761D01*
X133527142Y-97329523D01*
X133431904Y-97139047D01*
X133431904Y-96948571D01*
X133527142Y-96758095D01*
X133717619Y-96662857D01*
X134193809Y-96662857D01*
X134384285Y-96567619D01*
X135050952Y-96091428D02*
X135812857Y-96091428D01*
X135336666Y-95424761D02*
X135336666Y-97139047D01*
X135431904Y-97329523D01*
X135622380Y-97424761D01*
X135812857Y-97424761D01*
X136765238Y-97424761D02*
X136574761Y-97329523D01*
X136479523Y-97234285D01*
X136384285Y-97043809D01*
X136384285Y-96472380D01*
X136479523Y-96281904D01*
X136574761Y-96186666D01*
X136765238Y-96091428D01*
X137050952Y-96091428D01*
X137241428Y-96186666D01*
X137336666Y-96281904D01*
X137431904Y-96472380D01*
X137431904Y-97043809D01*
X137336666Y-97234285D01*
X137241428Y-97329523D01*
X137050952Y-97424761D01*
X136765238Y-97424761D01*
X138574761Y-97424761D02*
X138384285Y-97329523D01*
X138289047Y-97234285D01*
X138193809Y-97043809D01*
X138193809Y-96472380D01*
X138289047Y-96281904D01*
X138384285Y-96186666D01*
X138574761Y-96091428D01*
X138860476Y-96091428D01*
X139050952Y-96186666D01*
X139146190Y-96281904D01*
X139241428Y-96472380D01*
X139241428Y-97043809D01*
X139146190Y-97234285D01*
X139050952Y-97329523D01*
X138860476Y-97424761D01*
X138574761Y-97424761D01*
X140098571Y-97424761D02*
X140098571Y-96091428D01*
X140098571Y-96281904D02*
X140193809Y-96186666D01*
X140384285Y-96091428D01*
X140670000Y-96091428D01*
X140860476Y-96186666D01*
X140955714Y-96377142D01*
X140955714Y-97424761D01*
X140955714Y-96377142D02*
X141050952Y-96186666D01*
X141241428Y-96091428D01*
X141527142Y-96091428D01*
X141717619Y-96186666D01*
X141812857Y-96377142D01*
X141812857Y-97424761D01*
X142765238Y-96091428D02*
X142765238Y-97424761D01*
X142765238Y-96281904D02*
X142860476Y-96186666D01*
X143050952Y-96091428D01*
X143336666Y-96091428D01*
X143527142Y-96186666D01*
X143622380Y-96377142D01*
X143622380Y-97424761D01*
X145336666Y-97329523D02*
X145146190Y-97424761D01*
X144765238Y-97424761D01*
X144574761Y-97329523D01*
X144479523Y-97139047D01*
X144479523Y-96377142D01*
X144574761Y-96186666D01*
X144765238Y-96091428D01*
X145146190Y-96091428D01*
X145336666Y-96186666D01*
X145431904Y-96377142D01*
X145431904Y-96567619D01*
X144479523Y-96758095D01*
X146003333Y-96091428D02*
X146765238Y-96091428D01*
X146289047Y-95424761D02*
X146289047Y-97139047D01*
X146384285Y-97329523D01*
X146574761Y-97424761D01*
X146765238Y-97424761D01*
X147431904Y-97234285D02*
X147527142Y-97329523D01*
X147431904Y-97424761D01*
X147336666Y-97329523D01*
X147431904Y-97234285D01*
X147431904Y-97424761D01*
X148384285Y-96091428D02*
X148384285Y-97424761D01*
X148384285Y-96281904D02*
X148479523Y-96186666D01*
X148670000Y-96091428D01*
X148955714Y-96091428D01*
X149146190Y-96186666D01*
X149241428Y-96377142D01*
X149241428Y-97424761D01*
X150955714Y-97329523D02*
X150765238Y-97424761D01*
X150384285Y-97424761D01*
X150193809Y-97329523D01*
X150098571Y-97139047D01*
X150098571Y-96377142D01*
X150193809Y-96186666D01*
X150384285Y-96091428D01*
X150765238Y-96091428D01*
X150955714Y-96186666D01*
X151050952Y-96377142D01*
X151050952Y-96567619D01*
X150098571Y-96758095D01*
X151622380Y-96091428D02*
X152384285Y-96091428D01*
X151908095Y-95424761D02*
X151908095Y-97139047D01*
X152003333Y-97329523D01*
X152193809Y-97424761D01*
X152384285Y-97424761D01*
X154479523Y-95615238D02*
X154574761Y-95520000D01*
X154765238Y-95424761D01*
X155241428Y-95424761D01*
X155431904Y-95520000D01*
X155527142Y-95615238D01*
X155622380Y-95805714D01*
X155622380Y-95996190D01*
X155527142Y-96281904D01*
X154384285Y-97424761D01*
X155622380Y-97424761D01*
X156860476Y-95424761D02*
X157050952Y-95424761D01*
X157241428Y-95520000D01*
X157336666Y-95615238D01*
X157431904Y-95805714D01*
X157527142Y-96186666D01*
X157527142Y-96662857D01*
X157431904Y-97043809D01*
X157336666Y-97234285D01*
X157241428Y-97329523D01*
X157050952Y-97424761D01*
X156860476Y-97424761D01*
X156670000Y-97329523D01*
X156574761Y-97234285D01*
X156479523Y-97043809D01*
X156384285Y-96662857D01*
X156384285Y-96186666D01*
X156479523Y-95805714D01*
X156574761Y-95615238D01*
X156670000Y-95520000D01*
X156860476Y-95424761D01*
X159431904Y-97424761D02*
X158289047Y-97424761D01*
X158860476Y-97424761D02*
X158860476Y-95424761D01*
X158670000Y-95710476D01*
X158479523Y-95900952D01*
X158289047Y-95996190D01*
X160574761Y-96281904D02*
X160384285Y-96186666D01*
X160289047Y-96091428D01*
X160193809Y-95900952D01*
X160193809Y-95805714D01*
X160289047Y-95615238D01*
X160384285Y-95520000D01*
X160574761Y-95424761D01*
X160955714Y-95424761D01*
X161146190Y-95520000D01*
X161241428Y-95615238D01*
X161336666Y-95805714D01*
X161336666Y-95900952D01*
X161241428Y-96091428D01*
X161146190Y-96186666D01*
X160955714Y-96281904D01*
X160574761Y-96281904D01*
X160384285Y-96377142D01*
X160289047Y-96472380D01*
X160193809Y-96662857D01*
X160193809Y-97043809D01*
X160289047Y-97234285D01*
X160384285Y-97329523D01*
X160574761Y-97424761D01*
X160955714Y-97424761D01*
X161146190Y-97329523D01*
X161241428Y-97234285D01*
X161336666Y-97043809D01*
X161336666Y-96662857D01*
X161241428Y-96472380D01*
X161146190Y-96377142D01*
X160955714Y-96281904D01*
X162193809Y-96662857D02*
X163717619Y-96662857D01*
X165050952Y-95424761D02*
X165241428Y-95424761D01*
X165431904Y-95520000D01*
X165527142Y-95615238D01*
X165622380Y-95805714D01*
X165717619Y-96186666D01*
X165717619Y-96662857D01*
X165622380Y-97043809D01*
X165527142Y-97234285D01*
X165431904Y-97329523D01*
X165241428Y-97424761D01*
X165050952Y-97424761D01*
X164860476Y-97329523D01*
X164765238Y-97234285D01*
X164670000Y-97043809D01*
X164574761Y-96662857D01*
X164574761Y-96186666D01*
X164670000Y-95805714D01*
X164765238Y-95615238D01*
X164860476Y-95520000D01*
X165050952Y-95424761D01*
X166670000Y-97424761D02*
X167050952Y-97424761D01*
X167241428Y-97329523D01*
X167336666Y-97234285D01*
X167527142Y-96948571D01*
X167622380Y-96567619D01*
X167622380Y-95805714D01*
X167527142Y-95615238D01*
X167431904Y-95520000D01*
X167241428Y-95424761D01*
X166860476Y-95424761D01*
X166670000Y-95520000D01*
X166574761Y-95615238D01*
X166479523Y-95805714D01*
X166479523Y-96281904D01*
X166574761Y-96472380D01*
X166670000Y-96567619D01*
X166860476Y-96662857D01*
X167241428Y-96662857D01*
X167431904Y-96567619D01*
X167527142Y-96472380D01*
X167622380Y-96281904D01*
X168479523Y-96662857D02*
X170003333Y-96662857D01*
X170860476Y-95615238D02*
X170955714Y-95520000D01*
X171146190Y-95424761D01*
X171622380Y-95424761D01*
X171812857Y-95520000D01*
X171908095Y-95615238D01*
X172003333Y-95805714D01*
X172003333Y-95996190D01*
X171908095Y-96281904D01*
X170765238Y-97424761D01*
X172003333Y-97424761D01*
X172955714Y-97424761D02*
X173336666Y-97424761D01*
X173527142Y-97329523D01*
X173622380Y-97234285D01*
X173812857Y-96948571D01*
X173908095Y-96567619D01*
X173908095Y-95805714D01*
X173812857Y-95615238D01*
X173717619Y-95520000D01*
X173527142Y-95424761D01*
X173146190Y-95424761D01*
X172955714Y-95520000D01*
X172860476Y-95615238D01*
X172765238Y-95805714D01*
X172765238Y-96281904D01*
X172860476Y-96472380D01*
X172955714Y-96567619D01*
X173146190Y-96662857D01*
X173527142Y-96662857D01*
X173717619Y-96567619D01*
X173812857Y-96472380D01*
X173908095Y-96281904D01*
X133622380Y-110124761D02*
X132479523Y-110124761D01*
X133050952Y-110124761D02*
X133050952Y-108124761D01*
X132860476Y-108410476D01*
X132669999Y-108600952D01*
X132479523Y-108696190D01*
X135336666Y-108124761D02*
X134955714Y-108124761D01*
X134765238Y-108220000D01*
X134670000Y-108315238D01*
X134479523Y-108600952D01*
X134384285Y-108981904D01*
X134384285Y-109743809D01*
X134479523Y-109934285D01*
X134574761Y-110029523D01*
X134765238Y-110124761D01*
X135146190Y-110124761D01*
X135336666Y-110029523D01*
X135431904Y-109934285D01*
X135527142Y-109743809D01*
X135527142Y-109267619D01*
X135431904Y-109077142D01*
X135336666Y-108981904D01*
X135146190Y-108886666D01*
X134765238Y-108886666D01*
X134574761Y-108981904D01*
X134479523Y-109077142D01*
X134384285Y-109267619D01*
X137241428Y-110124761D02*
X137241428Y-108124761D01*
X137241428Y-110029523D02*
X137050952Y-110124761D01*
X136670000Y-110124761D01*
X136479523Y-110029523D01*
X136384285Y-109934285D01*
X136289047Y-109743809D01*
X136289047Y-109172380D01*
X136384285Y-108981904D01*
X136479523Y-108886666D01*
X136670000Y-108791428D01*
X137050952Y-108791428D01*
X137241428Y-108886666D01*
X138193809Y-110124761D02*
X138193809Y-108124761D01*
X138193809Y-108886666D02*
X138384285Y-108791428D01*
X138765238Y-108791428D01*
X138955714Y-108886666D01*
X139050952Y-108981904D01*
X139146190Y-109172380D01*
X139146190Y-109743809D01*
X139050952Y-109934285D01*
X138955714Y-110029523D01*
X138765238Y-110124761D01*
X138384285Y-110124761D01*
X138193809Y-110029523D01*
X142384285Y-110124761D02*
X142384285Y-109077142D01*
X142289047Y-108886666D01*
X142098571Y-108791428D01*
X141717619Y-108791428D01*
X141527142Y-108886666D01*
X142384285Y-110029523D02*
X142193809Y-110124761D01*
X141717619Y-110124761D01*
X141527142Y-110029523D01*
X141431904Y-109839047D01*
X141431904Y-109648571D01*
X141527142Y-109458095D01*
X141717619Y-109362857D01*
X142193809Y-109362857D01*
X142384285Y-109267619D01*
X143050952Y-108791428D02*
X143812857Y-108791428D01*
X143336666Y-108124761D02*
X143336666Y-109839047D01*
X143431904Y-110029523D01*
X143622380Y-110124761D01*
X143812857Y-110124761D01*
X144193809Y-108791428D02*
X144955714Y-108791428D01*
X144479523Y-108124761D02*
X144479523Y-109839047D01*
X144574761Y-110029523D01*
X144765238Y-110124761D01*
X144955714Y-110124761D01*
X146384285Y-110029523D02*
X146193809Y-110124761D01*
X145812857Y-110124761D01*
X145622380Y-110029523D01*
X145527142Y-109839047D01*
X145527142Y-109077142D01*
X145622380Y-108886666D01*
X145812857Y-108791428D01*
X146193809Y-108791428D01*
X146384285Y-108886666D01*
X146479523Y-109077142D01*
X146479523Y-109267619D01*
X145527142Y-109458095D01*
X147336666Y-108791428D02*
X147336666Y-110124761D01*
X147336666Y-108981904D02*
X147431904Y-108886666D01*
X147622380Y-108791428D01*
X147908095Y-108791428D01*
X148098571Y-108886666D01*
X148193809Y-109077142D01*
X148193809Y-110124761D01*
X150003333Y-108791428D02*
X150003333Y-110124761D01*
X149146190Y-108791428D02*
X149146190Y-109839047D01*
X149241428Y-110029523D01*
X149431904Y-110124761D01*
X149717619Y-110124761D01*
X149908095Y-110029523D01*
X150003333Y-109934285D01*
X151812857Y-110124761D02*
X151812857Y-109077142D01*
X151717619Y-108886666D01*
X151527142Y-108791428D01*
X151146190Y-108791428D01*
X150955714Y-108886666D01*
X151812857Y-110029523D02*
X151622380Y-110124761D01*
X151146190Y-110124761D01*
X150955714Y-110029523D01*
X150860476Y-109839047D01*
X150860476Y-109648571D01*
X150955714Y-109458095D01*
X151146190Y-109362857D01*
X151622380Y-109362857D01*
X151812857Y-109267619D01*
X152479523Y-108791428D02*
X153241428Y-108791428D01*
X152765238Y-108124761D02*
X152765238Y-109839047D01*
X152860476Y-110029523D01*
X153050952Y-110124761D01*
X153241428Y-110124761D01*
X154193809Y-110124761D02*
X154003333Y-110029523D01*
X153908095Y-109934285D01*
X153812857Y-109743809D01*
X153812857Y-109172380D01*
X153908095Y-108981904D01*
X154003333Y-108886666D01*
X154193809Y-108791428D01*
X154479523Y-108791428D01*
X154670000Y-108886666D01*
X154765238Y-108981904D01*
X154860476Y-109172380D01*
X154860476Y-109743809D01*
X154765238Y-109934285D01*
X154670000Y-110029523D01*
X154479523Y-110124761D01*
X154193809Y-110124761D01*
X155717619Y-110124761D02*
X155717619Y-108791428D01*
X155717619Y-109172380D02*
X155812857Y-108981904D01*
X155908095Y-108886666D01*
X156098571Y-108791428D01*
X156289047Y-108791428D01*
X158765238Y-108981904D02*
X158574761Y-108886666D01*
X158479523Y-108791428D01*
X158384285Y-108600952D01*
X158384285Y-108505714D01*
X158479523Y-108315238D01*
X158574761Y-108220000D01*
X158765238Y-108124761D01*
X159146190Y-108124761D01*
X159336666Y-108220000D01*
X159431904Y-108315238D01*
X159527142Y-108505714D01*
X159527142Y-108600952D01*
X159431904Y-108791428D01*
X159336666Y-108886666D01*
X159146190Y-108981904D01*
X158765238Y-108981904D01*
X158574761Y-109077142D01*
X158479523Y-109172380D01*
X158384285Y-109362857D01*
X158384285Y-109743809D01*
X158479523Y-109934285D01*
X158574761Y-110029523D01*
X158765238Y-110124761D01*
X159146190Y-110124761D01*
X159336666Y-110029523D01*
X159431904Y-109934285D01*
X159527142Y-109743809D01*
X159527142Y-109362857D01*
X159431904Y-109172380D01*
X159336666Y-109077142D01*
X159146190Y-108981904D01*
X160289047Y-110124761D02*
X160765238Y-110124761D01*
X160765238Y-109743809D01*
X160574761Y-109648571D01*
X160384285Y-109458095D01*
X160289047Y-109172380D01*
X160289047Y-108696190D01*
X160384285Y-108410476D01*
X160574761Y-108220000D01*
X160860476Y-108124761D01*
X161241428Y-108124761D01*
X161527142Y-108220000D01*
X161717619Y-108410476D01*
X161812857Y-108696190D01*
X161812857Y-109172380D01*
X161717619Y-109458095D01*
X161527142Y-109648571D01*
X161336666Y-109743809D01*
X161336666Y-110124761D01*
X161812857Y-110124761D01*
X164098571Y-110029523D02*
X164289047Y-110124761D01*
X164669999Y-110124761D01*
X164860476Y-110029523D01*
X164955714Y-109839047D01*
X164955714Y-109743809D01*
X164860476Y-109553333D01*
X164669999Y-109458095D01*
X164384285Y-109458095D01*
X164193809Y-109362857D01*
X164098571Y-109172380D01*
X164098571Y-109077142D01*
X164193809Y-108886666D01*
X164384285Y-108791428D01*
X164669999Y-108791428D01*
X164860476Y-108886666D01*
X165812857Y-108791428D02*
X165812857Y-110791428D01*
X165812857Y-108886666D02*
X166003333Y-108791428D01*
X166384285Y-108791428D01*
X166574761Y-108886666D01*
X166670000Y-108981904D01*
X166765238Y-109172380D01*
X166765238Y-109743809D01*
X166670000Y-109934285D01*
X166574761Y-110029523D01*
X166384285Y-110124761D01*
X166003333Y-110124761D01*
X165812857Y-110029523D01*
X168384285Y-110029523D02*
X168193809Y-110124761D01*
X167812857Y-110124761D01*
X167622380Y-110029523D01*
X167527142Y-109839047D01*
X167527142Y-109077142D01*
X167622380Y-108886666D01*
X167812857Y-108791428D01*
X168193809Y-108791428D01*
X168384285Y-108886666D01*
X168479523Y-109077142D01*
X168479523Y-109267619D01*
X167527142Y-109458095D01*
X170193809Y-110124761D02*
X170193809Y-109077142D01*
X170098571Y-108886666D01*
X169908095Y-108791428D01*
X169527142Y-108791428D01*
X169336666Y-108886666D01*
X170193809Y-110029523D02*
X170003333Y-110124761D01*
X169527142Y-110124761D01*
X169336666Y-110029523D01*
X169241428Y-109839047D01*
X169241428Y-109648571D01*
X169336666Y-109458095D01*
X169527142Y-109362857D01*
X170003333Y-109362857D01*
X170193809Y-109267619D01*
X171146190Y-110124761D02*
X171146190Y-108124761D01*
X171336666Y-109362857D02*
X171908095Y-110124761D01*
X171908095Y-108791428D02*
X171146190Y-109553333D01*
X173527142Y-110029523D02*
X173336666Y-110124761D01*
X172955714Y-110124761D01*
X172765238Y-110029523D01*
X172669999Y-109839047D01*
X172669999Y-109077142D01*
X172765238Y-108886666D01*
X172955714Y-108791428D01*
X173336666Y-108791428D01*
X173527142Y-108886666D01*
X173622380Y-109077142D01*
X173622380Y-109267619D01*
X172669999Y-109458095D01*
X174479523Y-110124761D02*
X174479523Y-108791428D01*
X174479523Y-109172380D02*
X174574761Y-108981904D01*
X174669999Y-108886666D01*
X174860476Y-108791428D01*
X175050952Y-108791428D01*
X199025000Y-106393809D02*
X198929761Y-106584285D01*
X198929761Y-106870000D01*
X199025000Y-107155714D01*
X199215476Y-107346190D01*
X199405952Y-107441428D01*
X199786904Y-107536666D01*
X200072619Y-107536666D01*
X200453571Y-107441428D01*
X200644047Y-107346190D01*
X200834523Y-107155714D01*
X200929761Y-106870000D01*
X200929761Y-106679523D01*
X200834523Y-106393809D01*
X200739285Y-106298571D01*
X200072619Y-106298571D01*
X200072619Y-106679523D01*
X200929761Y-105441428D02*
X198929761Y-105441428D01*
X200929761Y-104298571D01*
X198929761Y-104298571D01*
X200929761Y-103346190D02*
X198929761Y-103346190D01*
X198929761Y-102870000D01*
X199025000Y-102584285D01*
X199215476Y-102393809D01*
X199405952Y-102298571D01*
X199786904Y-102203333D01*
X200072619Y-102203333D01*
X200453571Y-102298571D01*
X200644047Y-102393809D01*
X200834523Y-102584285D01*
X200929761Y-102870000D01*
X200929761Y-103346190D01*
X200167857Y-99822380D02*
X200167857Y-98298571D01*
X200929761Y-99060476D02*
X199405952Y-99060476D01*
X107172142Y-98933571D02*
X107172142Y-100457380D01*
X106410238Y-99695476D02*
X107934047Y-99695476D01*
X108315000Y-103981190D02*
X108410238Y-103790714D01*
X108410238Y-103505000D01*
X108315000Y-103219285D01*
X108124523Y-103028809D01*
X107934047Y-102933571D01*
X107553095Y-102838333D01*
X107267380Y-102838333D01*
X106886428Y-102933571D01*
X106695952Y-103028809D01*
X106505476Y-103219285D01*
X106410238Y-103505000D01*
X106410238Y-103695476D01*
X106505476Y-103981190D01*
X106600714Y-104076428D01*
X107267380Y-104076428D01*
X107267380Y-103695476D01*
X106410238Y-104933571D02*
X108410238Y-104933571D01*
X106410238Y-106076428D01*
X108410238Y-106076428D01*
X106410238Y-107028809D02*
X108410238Y-107028809D01*
X108410238Y-107505000D01*
X108315000Y-107790714D01*
X108124523Y-107981190D01*
X107934047Y-108076428D01*
X107553095Y-108171666D01*
X107267380Y-108171666D01*
X106886428Y-108076428D01*
X106695952Y-107981190D01*
X106505476Y-107790714D01*
X106410238Y-107505000D01*
X106410238Y-107028809D01*
X112284285Y-112664761D02*
X112284285Y-110664761D01*
X113236666Y-111331428D02*
X113236666Y-112664761D01*
X113236666Y-111521904D02*
X113331904Y-111426666D01*
X113522380Y-111331428D01*
X113808095Y-111331428D01*
X113998571Y-111426666D01*
X114093809Y-111617142D01*
X114093809Y-112664761D01*
X115046190Y-111331428D02*
X115046190Y-113331428D01*
X115046190Y-111426666D02*
X115236666Y-111331428D01*
X115617619Y-111331428D01*
X115808095Y-111426666D01*
X115903333Y-111521904D01*
X115998571Y-111712380D01*
X115998571Y-112283809D01*
X115903333Y-112474285D01*
X115808095Y-112569523D01*
X115617619Y-112664761D01*
X115236666Y-112664761D01*
X115046190Y-112569523D01*
X117712857Y-111331428D02*
X117712857Y-112664761D01*
X116855714Y-111331428D02*
X116855714Y-112379047D01*
X116950952Y-112569523D01*
X117141428Y-112664761D01*
X117427142Y-112664761D01*
X117617619Y-112569523D01*
X117712857Y-112474285D01*
X118379523Y-111331428D02*
X119141428Y-111331428D01*
X118665238Y-110664761D02*
X118665238Y-112379047D01*
X118760476Y-112569523D01*
X118950952Y-112664761D01*
X119141428Y-112664761D01*
X187722380Y-110664761D02*
X188103333Y-110664761D01*
X188293809Y-110760000D01*
X188484285Y-110950476D01*
X188579523Y-111331428D01*
X188579523Y-111998095D01*
X188484285Y-112379047D01*
X188293809Y-112569523D01*
X188103333Y-112664761D01*
X187722380Y-112664761D01*
X187531904Y-112569523D01*
X187341428Y-112379047D01*
X187246190Y-111998095D01*
X187246190Y-111331428D01*
X187341428Y-110950476D01*
X187531904Y-110760000D01*
X187722380Y-110664761D01*
X190293809Y-111331428D02*
X190293809Y-112664761D01*
X189436666Y-111331428D02*
X189436666Y-112379047D01*
X189531904Y-112569523D01*
X189722380Y-112664761D01*
X190008095Y-112664761D01*
X190198571Y-112569523D01*
X190293809Y-112474285D01*
X190960476Y-111331428D02*
X191722380Y-111331428D01*
X191246190Y-110664761D02*
X191246190Y-112379047D01*
X191341428Y-112569523D01*
X191531904Y-112664761D01*
X191722380Y-112664761D01*
X192389047Y-111331428D02*
X192389047Y-113331428D01*
X192389047Y-111426666D02*
X192579523Y-111331428D01*
X192960476Y-111331428D01*
X193150952Y-111426666D01*
X193246190Y-111521904D01*
X193341428Y-111712380D01*
X193341428Y-112283809D01*
X193246190Y-112474285D01*
X193150952Y-112569523D01*
X192960476Y-112664761D01*
X192579523Y-112664761D01*
X192389047Y-112569523D01*
X195055714Y-111331428D02*
X195055714Y-112664761D01*
X194198571Y-111331428D02*
X194198571Y-112379047D01*
X194293809Y-112569523D01*
X194484285Y-112664761D01*
X194770000Y-112664761D01*
X194960476Y-112569523D01*
X195055714Y-112474285D01*
X195722380Y-111331428D02*
X196484285Y-111331428D01*
X196008095Y-110664761D02*
X196008095Y-112379047D01*
X196103333Y-112569523D01*
X196293809Y-112664761D01*
X196484285Y-112664761D01*
D11*
G04 #@! TO.C,J1*
X121870000Y-97680000D02*
X109270000Y-97680000D01*
X109270000Y-97680000D02*
X109270000Y-108030000D01*
X109270000Y-108030000D02*
X110220000Y-108030000D01*
X110220000Y-108030000D02*
X109970000Y-108530000D01*
X109970000Y-108530000D02*
X111870000Y-108530000D01*
X111870000Y-108530000D02*
X111920000Y-108530000D01*
X111920000Y-108530000D02*
X111670000Y-108030000D01*
X111670000Y-108030000D02*
X117070000Y-108030000D01*
X117070000Y-108030000D02*
X116770000Y-108530000D01*
X116770000Y-108530000D02*
X121870000Y-108530000D01*
X121870000Y-108530000D02*
X121870000Y-97680000D01*
G04 #@! TO.C,J2*
X185470000Y-97210000D02*
X185470000Y-108060000D01*
X190570000Y-97210000D02*
X185470000Y-97210000D01*
X190270000Y-97710000D02*
X190570000Y-97210000D01*
X195670000Y-97710000D02*
X190270000Y-97710000D01*
X195420000Y-97210000D02*
X195670000Y-97710000D01*
X195470000Y-97210000D02*
X195420000Y-97210000D01*
X197370000Y-97210000D02*
X195470000Y-97210000D01*
X197120000Y-97710000D02*
X197370000Y-97210000D01*
X198070000Y-97710000D02*
X197120000Y-97710000D01*
X198070000Y-108060000D02*
X198070000Y-97710000D01*
X185470000Y-108060000D02*
X198070000Y-108060000D01*
G04 #@! TO.C,R1*
X127110000Y-115570000D02*
X129370000Y-115570000D01*
X149750000Y-115570000D02*
X147490000Y-115570000D01*
X129370000Y-120130000D02*
X147490000Y-120130000D01*
X129370000Y-111010000D02*
X129370000Y-120130000D01*
X147490000Y-111010000D02*
X129370000Y-111010000D01*
X147490000Y-120130000D02*
X147490000Y-111010000D01*
G04 #@! TO.C,R2*
X177970000Y-120130000D02*
X177970000Y-111010000D01*
X177970000Y-111010000D02*
X159850000Y-111010000D01*
X159850000Y-111010000D02*
X159850000Y-120130000D01*
X159850000Y-120130000D02*
X177970000Y-120130000D01*
X180230000Y-115570000D02*
X177970000Y-115570000D01*
X157590000Y-115570000D02*
X159850000Y-115570000D01*
G04 #@! TO.C,R3*
X127110000Y-102870000D02*
X129370000Y-102870000D01*
X149750000Y-102870000D02*
X147490000Y-102870000D01*
X129370000Y-107430000D02*
X147490000Y-107430000D01*
X129370000Y-98310000D02*
X129370000Y-107430000D01*
X147490000Y-98310000D02*
X129370000Y-98310000D01*
X147490000Y-107430000D02*
X147490000Y-98310000D01*
G04 #@! TO.C,R4*
X177970000Y-107430000D02*
X177970000Y-98310000D01*
X177970000Y-98310000D02*
X159850000Y-98310000D01*
X159850000Y-98310000D02*
X159850000Y-107430000D01*
X159850000Y-107430000D02*
X177970000Y-107430000D01*
X180230000Y-102870000D02*
X177970000Y-102870000D01*
X157590000Y-102870000D02*
X159850000Y-102870000D01*
G04 #@! TO.C,R5*
X126710000Y-92710000D02*
X127600000Y-92710000D01*
X134910000Y-92710000D02*
X134020000Y-92710000D01*
X127600000Y-94020000D02*
X134020000Y-94020000D01*
X127600000Y-91400000D02*
X127600000Y-94020000D01*
X134020000Y-91400000D02*
X127600000Y-91400000D01*
X134020000Y-94020000D02*
X134020000Y-91400000D01*
G04 #@! TO.C,R6*
X134020000Y-88940000D02*
X134020000Y-86320000D01*
X134020000Y-86320000D02*
X127600000Y-86320000D01*
X127600000Y-86320000D02*
X127600000Y-88940000D01*
X127600000Y-88940000D02*
X134020000Y-88940000D01*
X134910000Y-87630000D02*
X134020000Y-87630000D01*
X126710000Y-87630000D02*
X127600000Y-87630000D01*
G04 #@! TO.C,R10*
X142350000Y-90170000D02*
X144610000Y-90170000D01*
X164990000Y-90170000D02*
X162730000Y-90170000D01*
X144610000Y-94730000D02*
X162730000Y-94730000D01*
X144610000Y-85610000D02*
X144610000Y-94730000D01*
X162730000Y-85610000D02*
X144610000Y-85610000D01*
X162730000Y-94730000D02*
X162730000Y-85610000D01*
G04 #@! TO.C,R11*
X173320000Y-91400000D02*
X173320000Y-94020000D01*
X173320000Y-94020000D02*
X179740000Y-94020000D01*
X179740000Y-94020000D02*
X179740000Y-91400000D01*
X179740000Y-91400000D02*
X173320000Y-91400000D01*
X172430000Y-92710000D02*
X173320000Y-92710000D01*
X180630000Y-92710000D02*
X179740000Y-92710000D01*
G04 #@! TO.C,R12*
X180630000Y-87630000D02*
X179740000Y-87630000D01*
X172430000Y-87630000D02*
X173320000Y-87630000D01*
X179740000Y-86320000D02*
X173320000Y-86320000D01*
X179740000Y-88940000D02*
X179740000Y-86320000D01*
X173320000Y-88940000D02*
X179740000Y-88940000D01*
X173320000Y-86320000D02*
X173320000Y-88940000D01*
G04 #@! TO.C,J1*
D10*
X111934761Y-95916666D02*
X113363333Y-95916666D01*
X113649047Y-96011904D01*
X113839523Y-96202380D01*
X113934761Y-96488095D01*
X113934761Y-96678571D01*
X113934761Y-93916666D02*
X113934761Y-95059523D01*
X113934761Y-94488095D02*
X111934761Y-94488095D01*
X112220476Y-94678571D01*
X112410952Y-94869047D01*
X112506190Y-95059523D01*
G04 #@! TO.C,J2*
X193214761Y-95916666D02*
X194643333Y-95916666D01*
X194929047Y-96011904D01*
X195119523Y-96202380D01*
X195214761Y-96488095D01*
X195214761Y-96678571D01*
X193405238Y-95059523D02*
X193310000Y-94964285D01*
X193214761Y-94773809D01*
X193214761Y-94297619D01*
X193310000Y-94107142D01*
X193405238Y-94011904D01*
X193595714Y-93916666D01*
X193786190Y-93916666D01*
X194071904Y-94011904D01*
X195214761Y-95154761D01*
X195214761Y-93916666D01*
G04 #@! TO.C,R1*
X126666666Y-112664761D02*
X126000000Y-111712380D01*
X125523809Y-112664761D02*
X125523809Y-110664761D01*
X126285714Y-110664761D01*
X126476190Y-110760000D01*
X126571428Y-110855238D01*
X126666666Y-111045714D01*
X126666666Y-111331428D01*
X126571428Y-111521904D01*
X126476190Y-111617142D01*
X126285714Y-111712380D01*
X125523809Y-111712380D01*
X128571428Y-112664761D02*
X127428571Y-112664761D01*
X128000000Y-112664761D02*
X128000000Y-110664761D01*
X127809523Y-110950476D01*
X127619047Y-111140952D01*
X127428571Y-111236190D01*
G04 #@! TO.C,R2*
X180006666Y-112664761D02*
X179340000Y-111712380D01*
X178863809Y-112664761D02*
X178863809Y-110664761D01*
X179625714Y-110664761D01*
X179816190Y-110760000D01*
X179911428Y-110855238D01*
X180006666Y-111045714D01*
X180006666Y-111331428D01*
X179911428Y-111521904D01*
X179816190Y-111617142D01*
X179625714Y-111712380D01*
X178863809Y-111712380D01*
X180768571Y-110855238D02*
X180863809Y-110760000D01*
X181054285Y-110664761D01*
X181530476Y-110664761D01*
X181720952Y-110760000D01*
X181816190Y-110855238D01*
X181911428Y-111045714D01*
X181911428Y-111236190D01*
X181816190Y-111521904D01*
X180673333Y-112664761D01*
X181911428Y-112664761D01*
G04 #@! TO.C,R3*
X126666666Y-107584761D02*
X126000000Y-106632380D01*
X125523809Y-107584761D02*
X125523809Y-105584761D01*
X126285714Y-105584761D01*
X126476190Y-105680000D01*
X126571428Y-105775238D01*
X126666666Y-105965714D01*
X126666666Y-106251428D01*
X126571428Y-106441904D01*
X126476190Y-106537142D01*
X126285714Y-106632380D01*
X125523809Y-106632380D01*
X127333333Y-105584761D02*
X128571428Y-105584761D01*
X127904761Y-106346666D01*
X128190476Y-106346666D01*
X128380952Y-106441904D01*
X128476190Y-106537142D01*
X128571428Y-106727619D01*
X128571428Y-107203809D01*
X128476190Y-107394285D01*
X128380952Y-107489523D01*
X128190476Y-107584761D01*
X127619047Y-107584761D01*
X127428571Y-107489523D01*
X127333333Y-107394285D01*
G04 #@! TO.C,R4*
X180006666Y-107584761D02*
X179340000Y-106632380D01*
X178863809Y-107584761D02*
X178863809Y-105584761D01*
X179625714Y-105584761D01*
X179816190Y-105680000D01*
X179911428Y-105775238D01*
X180006666Y-105965714D01*
X180006666Y-106251428D01*
X179911428Y-106441904D01*
X179816190Y-106537142D01*
X179625714Y-106632380D01*
X178863809Y-106632380D01*
X181720952Y-106251428D02*
X181720952Y-107584761D01*
X181244761Y-105489523D02*
X180768571Y-106918095D01*
X182006666Y-106918095D01*
G04 #@! TO.C,R5*
X120316666Y-93614761D02*
X119650000Y-92662380D01*
X119173809Y-93614761D02*
X119173809Y-91614761D01*
X119935714Y-91614761D01*
X120126190Y-91710000D01*
X120221428Y-91805238D01*
X120316666Y-91995714D01*
X120316666Y-92281428D01*
X120221428Y-92471904D01*
X120126190Y-92567142D01*
X119935714Y-92662380D01*
X119173809Y-92662380D01*
X122126190Y-91614761D02*
X121173809Y-91614761D01*
X121078571Y-92567142D01*
X121173809Y-92471904D01*
X121364285Y-92376666D01*
X121840476Y-92376666D01*
X122030952Y-92471904D01*
X122126190Y-92567142D01*
X122221428Y-92757619D01*
X122221428Y-93233809D01*
X122126190Y-93424285D01*
X122030952Y-93519523D01*
X121840476Y-93614761D01*
X121364285Y-93614761D01*
X121173809Y-93519523D01*
X121078571Y-93424285D01*
G04 #@! TO.C,R6*
X120316666Y-88534761D02*
X119650000Y-87582380D01*
X119173809Y-88534761D02*
X119173809Y-86534761D01*
X119935714Y-86534761D01*
X120126190Y-86630000D01*
X120221428Y-86725238D01*
X120316666Y-86915714D01*
X120316666Y-87201428D01*
X120221428Y-87391904D01*
X120126190Y-87487142D01*
X119935714Y-87582380D01*
X119173809Y-87582380D01*
X122030952Y-86534761D02*
X121650000Y-86534761D01*
X121459523Y-86630000D01*
X121364285Y-86725238D01*
X121173809Y-87010952D01*
X121078571Y-87391904D01*
X121078571Y-88153809D01*
X121173809Y-88344285D01*
X121269047Y-88439523D01*
X121459523Y-88534761D01*
X121840476Y-88534761D01*
X122030952Y-88439523D01*
X122126190Y-88344285D01*
X122221428Y-88153809D01*
X122221428Y-87677619D01*
X122126190Y-87487142D01*
X122030952Y-87391904D01*
X121840476Y-87296666D01*
X121459523Y-87296666D01*
X121269047Y-87391904D01*
X121173809Y-87487142D01*
X121078571Y-87677619D01*
G04 #@! TO.C,R10*
X165084285Y-87264761D02*
X164417619Y-86312380D01*
X163941428Y-87264761D02*
X163941428Y-85264761D01*
X164703333Y-85264761D01*
X164893809Y-85360000D01*
X164989047Y-85455238D01*
X165084285Y-85645714D01*
X165084285Y-85931428D01*
X164989047Y-86121904D01*
X164893809Y-86217142D01*
X164703333Y-86312380D01*
X163941428Y-86312380D01*
X166989047Y-87264761D02*
X165846190Y-87264761D01*
X166417619Y-87264761D02*
X166417619Y-85264761D01*
X166227142Y-85550476D01*
X166036666Y-85740952D01*
X165846190Y-85836190D01*
X168227142Y-85264761D02*
X168417619Y-85264761D01*
X168608095Y-85360000D01*
X168703333Y-85455238D01*
X168798571Y-85645714D01*
X168893809Y-86026666D01*
X168893809Y-86502857D01*
X168798571Y-86883809D01*
X168703333Y-87074285D01*
X168608095Y-87169523D01*
X168417619Y-87264761D01*
X168227142Y-87264761D01*
X168036666Y-87169523D01*
X167941428Y-87074285D01*
X167846190Y-86883809D01*
X167750952Y-86502857D01*
X167750952Y-86026666D01*
X167846190Y-85645714D01*
X167941428Y-85455238D01*
X168036666Y-85360000D01*
X168227142Y-85264761D01*
G04 #@! TO.C,R11*
X185404285Y-93614761D02*
X184737619Y-92662380D01*
X184261428Y-93614761D02*
X184261428Y-91614761D01*
X185023333Y-91614761D01*
X185213809Y-91710000D01*
X185309047Y-91805238D01*
X185404285Y-91995714D01*
X185404285Y-92281428D01*
X185309047Y-92471904D01*
X185213809Y-92567142D01*
X185023333Y-92662380D01*
X184261428Y-92662380D01*
X187309047Y-93614761D02*
X186166190Y-93614761D01*
X186737619Y-93614761D02*
X186737619Y-91614761D01*
X186547142Y-91900476D01*
X186356666Y-92090952D01*
X186166190Y-92186190D01*
X189213809Y-93614761D02*
X188070952Y-93614761D01*
X188642380Y-93614761D02*
X188642380Y-91614761D01*
X188451904Y-91900476D01*
X188261428Y-92090952D01*
X188070952Y-92186190D01*
G04 #@! TO.C,R12*
X185404285Y-88534761D02*
X184737619Y-87582380D01*
X184261428Y-88534761D02*
X184261428Y-86534761D01*
X185023333Y-86534761D01*
X185213809Y-86630000D01*
X185309047Y-86725238D01*
X185404285Y-86915714D01*
X185404285Y-87201428D01*
X185309047Y-87391904D01*
X185213809Y-87487142D01*
X185023333Y-87582380D01*
X184261428Y-87582380D01*
X187309047Y-88534761D02*
X186166190Y-88534761D01*
X186737619Y-88534761D02*
X186737619Y-86534761D01*
X186547142Y-86820476D01*
X186356666Y-87010952D01*
X186166190Y-87106190D01*
X188070952Y-86725238D02*
X188166190Y-86630000D01*
X188356666Y-86534761D01*
X188832857Y-86534761D01*
X189023333Y-86630000D01*
X189118571Y-86725238D01*
X189213809Y-86915714D01*
X189213809Y-87106190D01*
X189118571Y-87391904D01*
X187975714Y-88534761D01*
X189213809Y-88534761D01*
G04 #@! TD*
M02*
