M48
;DRILL file {KiCad (5.0.0)} date 09/29/18 19:01:24
;FORMAT={-:-/ absolute / inch / decimal}
FMAT,2
INCH,TZ
T1C0.0315
T2C0.0472
T3C0.0520
%
G90
G05
M72
T1
X6.75Y-3.45
X7.15Y-3.45
X6.75Y-3.65
X7.15Y-3.65
X4.95Y-3.65
X5.35Y-3.65
X4.95Y-3.45
X5.35Y-3.45
T2
X4.95Y-4.05
X5.95Y-4.05
X4.95Y-4.55
X5.95Y-4.55
X6.15Y-4.55
X7.15Y-4.55
X5.55Y-3.55
X6.55Y-3.55
X6.15Y-4.05
X7.15Y-4.05
T3
X4.55Y-3.95
X4.55Y-4.1469
X7.55Y-3.9531
X7.55Y-4.15
T0
M30
