G04 #@! TF.GenerationSoftware,KiCad,Pcbnew,(5.0.0)*
G04 #@! TF.CreationDate,2018-09-29T19:01:10+02:00*
G04 #@! TF.ProjectId,16db attenuator,3136646220617474656E7561746F722E,rev?*
G04 #@! TF.SameCoordinates,Original*
G04 #@! TF.FileFunction,Copper,L2,Bot,Signal*
G04 #@! TF.FilePolarity,Positive*
%FSLAX46Y46*%
G04 Gerber Fmt 4.6, Leading zero omitted, Abs format (unit mm)*
G04 Created by KiCad (PCBNEW (5.0.0)) date 09/29/18 19:01:10*
%MOMM*%
%LPD*%
G01*
G04 APERTURE LIST*
G04 #@! TA.AperFunction,ComponentPad*
%ADD10R,3.960000X1.980000*%
G04 #@! TD*
G04 #@! TA.AperFunction,ComponentPad*
%ADD11O,3.960000X1.980000*%
G04 #@! TD*
G04 #@! TA.AperFunction,ComponentPad*
%ADD12O,2.400000X2.400000*%
G04 #@! TD*
G04 #@! TA.AperFunction,ComponentPad*
%ADD13C,2.400000*%
G04 #@! TD*
G04 #@! TA.AperFunction,ComponentPad*
%ADD14O,1.600000X1.600000*%
G04 #@! TD*
G04 #@! TA.AperFunction,ComponentPad*
%ADD15C,1.600000*%
G04 #@! TD*
G04 #@! TA.AperFunction,Conductor*
%ADD16C,2.500000*%
G04 #@! TD*
G04 #@! TA.AperFunction,Conductor*
%ADD17C,0.254000*%
G04 #@! TD*
G04 APERTURE END LIST*
D10*
G04 #@! TO.P,J1,1*
G04 #@! TO.N,/INPUT*
X115570000Y-100330000D03*
D11*
G04 #@! TO.P,J1,2*
G04 #@! TO.N,GND*
X115570000Y-105330000D03*
G04 #@! TD*
G04 #@! TO.P,J2,2*
G04 #@! TO.N,/OUTPUT*
X191770000Y-100410000D03*
D10*
G04 #@! TO.P,J2,1*
G04 #@! TO.N,GND*
X191770000Y-105410000D03*
G04 #@! TD*
D12*
G04 #@! TO.P,R1,2*
G04 #@! TO.N,/INPUT*
X125730000Y-115570000D03*
D13*
G04 #@! TO.P,R1,1*
G04 #@! TO.N,Net-(R1-Pad1)*
X151130000Y-115570000D03*
G04 #@! TD*
G04 #@! TO.P,R2,1*
G04 #@! TO.N,/OUTPUT*
X181610000Y-115570000D03*
D12*
G04 #@! TO.P,R2,2*
G04 #@! TO.N,Net-(R1-Pad1)*
X156210000Y-115570000D03*
G04 #@! TD*
G04 #@! TO.P,R3,2*
G04 #@! TO.N,/INPUT*
X125730000Y-102870000D03*
D13*
G04 #@! TO.P,R3,1*
G04 #@! TO.N,Net-(R3-Pad1)*
X151130000Y-102870000D03*
G04 #@! TD*
G04 #@! TO.P,R4,1*
G04 #@! TO.N,/OUTPUT*
X181610000Y-102870000D03*
D12*
G04 #@! TO.P,R4,2*
G04 #@! TO.N,Net-(R3-Pad1)*
X156210000Y-102870000D03*
G04 #@! TD*
D14*
G04 #@! TO.P,R5,2*
G04 #@! TO.N,/INPUT*
X125730000Y-92710000D03*
D15*
G04 #@! TO.P,R5,1*
G04 #@! TO.N,/OUTPUT*
X135890000Y-92710000D03*
G04 #@! TD*
G04 #@! TO.P,R6,1*
G04 #@! TO.N,/OUTPUT*
X135890000Y-87630000D03*
D14*
G04 #@! TO.P,R6,2*
G04 #@! TO.N,/INPUT*
X125730000Y-87630000D03*
G04 #@! TD*
D12*
G04 #@! TO.P,R10,2*
G04 #@! TO.N,GND*
X140970000Y-90170000D03*
D13*
G04 #@! TO.P,R10,1*
G04 #@! TO.N,/OUTPUT*
X166370000Y-90170000D03*
G04 #@! TD*
D15*
G04 #@! TO.P,R11,1*
G04 #@! TO.N,/OUTPUT*
X171450000Y-92710000D03*
D14*
G04 #@! TO.P,R11,2*
G04 #@! TO.N,GND*
X181610000Y-92710000D03*
G04 #@! TD*
G04 #@! TO.P,R12,2*
G04 #@! TO.N,GND*
X181610000Y-87630000D03*
D15*
G04 #@! TO.P,R12,1*
G04 #@! TO.N,/OUTPUT*
X171450000Y-87630000D03*
G04 #@! TD*
D16*
G04 #@! TO.N,/INPUT*
X123190000Y-100330000D02*
X115570000Y-100330000D01*
X125730000Y-102870000D02*
X123190000Y-100330000D01*
X125730000Y-102870000D02*
X125730000Y-115570000D01*
X125730000Y-87630000D02*
X125730000Y-92710000D01*
X125730000Y-97790000D02*
X123190000Y-100330000D01*
X125730000Y-92710000D02*
X125730000Y-97790000D01*
G04 #@! TO.N,/OUTPUT*
X181610000Y-102870000D02*
X184150000Y-100330000D01*
X184230000Y-100410000D02*
X191770000Y-100410000D01*
X184150000Y-100330000D02*
X184230000Y-100410000D01*
X181610000Y-102870000D02*
X181610000Y-115570000D01*
X181610000Y-102870000D02*
X168910000Y-102870000D01*
X168910000Y-102870000D02*
X166370000Y-100330000D01*
X166370000Y-100330000D02*
X166370000Y-90170000D01*
X135890000Y-87630000D02*
X135890000Y-92710000D01*
X135890000Y-92710000D02*
X138430000Y-95250000D01*
X138430000Y-95250000D02*
X156210000Y-95250000D01*
X161290000Y-90170000D02*
X166370000Y-90170000D01*
X156210000Y-95250000D02*
X161290000Y-90170000D01*
X166370000Y-90170000D02*
X171450000Y-90170000D01*
X171450000Y-92710000D02*
X171450000Y-90170000D01*
X171450000Y-90170000D02*
X171450000Y-87630000D01*
G04 #@! TO.N,Net-(R1-Pad1)*
X151130000Y-115570000D02*
X156210000Y-115570000D01*
G04 #@! TO.N,Net-(R3-Pad1)*
X151130000Y-102870000D02*
X156210000Y-102870000D01*
G04 #@! TD*
D17*
G04 #@! TO.N,GND*
G36*
X200533000Y-121793000D02*
X106807000Y-121793000D01*
X106807000Y-105708865D01*
X112999782Y-105708865D01*
X113030095Y-105834528D01*
X113341149Y-106389246D01*
X113840807Y-106782703D01*
X114453000Y-106955000D01*
X115443000Y-106955000D01*
X115443000Y-105457000D01*
X115697000Y-105457000D01*
X115697000Y-106955000D01*
X116687000Y-106955000D01*
X117299193Y-106782703D01*
X117798851Y-106389246D01*
X118109905Y-105834528D01*
X118140218Y-105708865D01*
X118020740Y-105457000D01*
X115697000Y-105457000D01*
X115443000Y-105457000D01*
X113119260Y-105457000D01*
X112999782Y-105708865D01*
X106807000Y-105708865D01*
X106807000Y-104951135D01*
X112999782Y-104951135D01*
X113119260Y-105203000D01*
X115443000Y-105203000D01*
X115443000Y-103705000D01*
X115697000Y-103705000D01*
X115697000Y-105203000D01*
X118020740Y-105203000D01*
X118140218Y-104951135D01*
X118109905Y-104825472D01*
X117798851Y-104270754D01*
X117299193Y-103877297D01*
X116687000Y-103705000D01*
X115697000Y-103705000D01*
X115443000Y-103705000D01*
X114453000Y-103705000D01*
X113840807Y-103877297D01*
X113341149Y-104270754D01*
X113030095Y-104825472D01*
X112999782Y-104951135D01*
X106807000Y-104951135D01*
X106807000Y-99340000D01*
X112942560Y-99340000D01*
X112942560Y-101320000D01*
X112991843Y-101567765D01*
X113132191Y-101777809D01*
X113342235Y-101918157D01*
X113590000Y-101967440D01*
X114627693Y-101967440D01*
X114834510Y-102105631D01*
X115384345Y-102215000D01*
X122409208Y-102215000D01*
X123845000Y-103650792D01*
X123845001Y-115755655D01*
X123954370Y-116305490D01*
X124370992Y-116929009D01*
X124994511Y-117345631D01*
X125730000Y-117491929D01*
X126465490Y-117345631D01*
X127089009Y-116929009D01*
X127505631Y-116305490D01*
X127615000Y-115755655D01*
X127615000Y-115570000D01*
X149208071Y-115570000D01*
X149354369Y-116305490D01*
X149770991Y-116929009D01*
X150394510Y-117345631D01*
X150944345Y-117455000D01*
X156395655Y-117455000D01*
X156945490Y-117345631D01*
X157569009Y-116929009D01*
X157985631Y-116305490D01*
X158131929Y-115570000D01*
X157985631Y-114834510D01*
X157569009Y-114210991D01*
X156945490Y-113794369D01*
X156395655Y-113685000D01*
X150944345Y-113685000D01*
X150394510Y-113794369D01*
X149770991Y-114210991D01*
X149354369Y-114834510D01*
X149208071Y-115570000D01*
X127615000Y-115570000D01*
X127615000Y-103055649D01*
X127651927Y-102870000D01*
X149208071Y-102870000D01*
X149354369Y-103605490D01*
X149770991Y-104229009D01*
X150394510Y-104645631D01*
X150944345Y-104755000D01*
X156395655Y-104755000D01*
X156945490Y-104645631D01*
X157569009Y-104229009D01*
X157985631Y-103605490D01*
X158131929Y-102870000D01*
X157985631Y-102134510D01*
X157569009Y-101510991D01*
X156945490Y-101094369D01*
X156395655Y-100985000D01*
X150944345Y-100985000D01*
X150394510Y-101094369D01*
X149770991Y-101510991D01*
X149354369Y-102134510D01*
X149208071Y-102870000D01*
X127651927Y-102870000D01*
X127651928Y-102869999D01*
X127615000Y-102684349D01*
X127615000Y-102684345D01*
X127505631Y-102134510D01*
X127089009Y-101510991D01*
X126931618Y-101405826D01*
X125855792Y-100330000D01*
X126931617Y-99254175D01*
X127089009Y-99149009D01*
X127395698Y-98690016D01*
X127505630Y-98525492D01*
X127505630Y-98525491D01*
X127505631Y-98525490D01*
X127615000Y-97975655D01*
X127615000Y-97975651D01*
X127651928Y-97790001D01*
X127615000Y-97604351D01*
X127615000Y-92710000D01*
X133968072Y-92710000D01*
X134114370Y-93445490D01*
X134425826Y-93911618D01*
X134425828Y-93911620D01*
X134530992Y-94069009D01*
X134688381Y-94174173D01*
X136965825Y-96451617D01*
X137070991Y-96609009D01*
X137228382Y-96714174D01*
X137694508Y-97025630D01*
X137694509Y-97025630D01*
X137694510Y-97025631D01*
X138244345Y-97135000D01*
X138244349Y-97135000D01*
X138429999Y-97171928D01*
X138615649Y-97135000D01*
X156024350Y-97135000D01*
X156210000Y-97171928D01*
X156395650Y-97135000D01*
X156395655Y-97135000D01*
X156945490Y-97025631D01*
X157569009Y-96609009D01*
X157674175Y-96451617D01*
X162070793Y-92055000D01*
X164485001Y-92055000D01*
X164485000Y-100144350D01*
X164448072Y-100330000D01*
X164485000Y-100515650D01*
X164485000Y-100515654D01*
X164594369Y-101065489D01*
X165010991Y-101689009D01*
X165168382Y-101794174D01*
X167445825Y-104071617D01*
X167550991Y-104229009D01*
X168009984Y-104535698D01*
X168174508Y-104645630D01*
X168174509Y-104645630D01*
X168174510Y-104645631D01*
X168724345Y-104755000D01*
X168724349Y-104755000D01*
X168909999Y-104791928D01*
X169095649Y-104755000D01*
X179725000Y-104755000D01*
X179725001Y-115755655D01*
X179834370Y-116305490D01*
X180250992Y-116929009D01*
X180874511Y-117345631D01*
X181610000Y-117491929D01*
X182345490Y-117345631D01*
X182969009Y-116929009D01*
X183385631Y-116305490D01*
X183495000Y-115755655D01*
X183495000Y-105695750D01*
X189155000Y-105695750D01*
X189155000Y-106526309D01*
X189251673Y-106759698D01*
X189430301Y-106938327D01*
X189663690Y-107035000D01*
X191484250Y-107035000D01*
X191643000Y-106876250D01*
X191643000Y-105537000D01*
X191897000Y-105537000D01*
X191897000Y-106876250D01*
X192055750Y-107035000D01*
X193876310Y-107035000D01*
X194109699Y-106938327D01*
X194288327Y-106759698D01*
X194385000Y-106526309D01*
X194385000Y-105695750D01*
X194226250Y-105537000D01*
X191897000Y-105537000D01*
X191643000Y-105537000D01*
X189313750Y-105537000D01*
X189155000Y-105695750D01*
X183495000Y-105695750D01*
X183495000Y-104293691D01*
X189155000Y-104293691D01*
X189155000Y-105124250D01*
X189313750Y-105283000D01*
X191643000Y-105283000D01*
X191643000Y-103943750D01*
X191897000Y-103943750D01*
X191897000Y-105283000D01*
X194226250Y-105283000D01*
X194385000Y-105124250D01*
X194385000Y-104293691D01*
X194288327Y-104060302D01*
X194109699Y-103881673D01*
X193876310Y-103785000D01*
X192055750Y-103785000D01*
X191897000Y-103943750D01*
X191643000Y-103943750D01*
X191484250Y-103785000D01*
X189663690Y-103785000D01*
X189430301Y-103881673D01*
X189251673Y-104060302D01*
X189155000Y-104293691D01*
X183495000Y-104293691D01*
X183495000Y-103650792D01*
X184850792Y-102295000D01*
X191955655Y-102295000D01*
X192505490Y-102185631D01*
X192730925Y-102035000D01*
X192920045Y-102035000D01*
X193394043Y-101940716D01*
X193931559Y-101581559D01*
X194290716Y-101044043D01*
X194416835Y-100410000D01*
X194290716Y-99775957D01*
X193931559Y-99238441D01*
X193394043Y-98879284D01*
X192920045Y-98785000D01*
X192730925Y-98785000D01*
X192505490Y-98634369D01*
X191955655Y-98525000D01*
X184737837Y-98525000D01*
X184150000Y-98408072D01*
X184149999Y-98408072D01*
X183414508Y-98554370D01*
X183133936Y-98741843D01*
X182790991Y-98970991D01*
X182685826Y-99128382D01*
X180829208Y-100985000D01*
X169690792Y-100985000D01*
X168255000Y-99549208D01*
X168255000Y-92055000D01*
X169565000Y-92055000D01*
X169565000Y-92895654D01*
X169674369Y-93445489D01*
X170090991Y-94069009D01*
X170714510Y-94485631D01*
X171450000Y-94631929D01*
X172185489Y-94485631D01*
X172809009Y-94069009D01*
X173225631Y-93445490D01*
X173302500Y-93059039D01*
X180218096Y-93059039D01*
X180378959Y-93447423D01*
X180754866Y-93862389D01*
X181260959Y-94101914D01*
X181483000Y-93980629D01*
X181483000Y-92837000D01*
X181737000Y-92837000D01*
X181737000Y-93980629D01*
X181959041Y-94101914D01*
X182465134Y-93862389D01*
X182841041Y-93447423D01*
X183001904Y-93059039D01*
X182879915Y-92837000D01*
X181737000Y-92837000D01*
X181483000Y-92837000D01*
X180340085Y-92837000D01*
X180218096Y-93059039D01*
X173302500Y-93059039D01*
X173335000Y-92895655D01*
X173335000Y-92360961D01*
X180218096Y-92360961D01*
X180340085Y-92583000D01*
X181483000Y-92583000D01*
X181483000Y-91439371D01*
X181737000Y-91439371D01*
X181737000Y-92583000D01*
X182879915Y-92583000D01*
X183001904Y-92360961D01*
X182841041Y-91972577D01*
X182465134Y-91557611D01*
X181959041Y-91318086D01*
X181737000Y-91439371D01*
X181483000Y-91439371D01*
X181260959Y-91318086D01*
X180754866Y-91557611D01*
X180378959Y-91972577D01*
X180218096Y-92360961D01*
X173335000Y-92360961D01*
X173335000Y-90355654D01*
X173371929Y-90170000D01*
X173335000Y-89984345D01*
X173335000Y-87979039D01*
X180218096Y-87979039D01*
X180378959Y-88367423D01*
X180754866Y-88782389D01*
X181260959Y-89021914D01*
X181483000Y-88900629D01*
X181483000Y-87757000D01*
X181737000Y-87757000D01*
X181737000Y-88900629D01*
X181959041Y-89021914D01*
X182465134Y-88782389D01*
X182841041Y-88367423D01*
X183001904Y-87979039D01*
X182879915Y-87757000D01*
X181737000Y-87757000D01*
X181483000Y-87757000D01*
X180340085Y-87757000D01*
X180218096Y-87979039D01*
X173335000Y-87979039D01*
X173335000Y-87444345D01*
X173302501Y-87280961D01*
X180218096Y-87280961D01*
X180340085Y-87503000D01*
X181483000Y-87503000D01*
X181483000Y-86359371D01*
X181737000Y-86359371D01*
X181737000Y-87503000D01*
X182879915Y-87503000D01*
X183001904Y-87280961D01*
X182841041Y-86892577D01*
X182465134Y-86477611D01*
X181959041Y-86238086D01*
X181737000Y-86359371D01*
X181483000Y-86359371D01*
X181260959Y-86238086D01*
X180754866Y-86477611D01*
X180378959Y-86892577D01*
X180218096Y-87280961D01*
X173302501Y-87280961D01*
X173225631Y-86894510D01*
X172809009Y-86270991D01*
X172185490Y-85854369D01*
X171450000Y-85708071D01*
X170714511Y-85854369D01*
X170090992Y-86270991D01*
X169674370Y-86894510D01*
X169565001Y-87444345D01*
X169565001Y-88285000D01*
X166555655Y-88285000D01*
X166370000Y-88248071D01*
X166184346Y-88285000D01*
X161475653Y-88285000D01*
X161290000Y-88248071D01*
X161104346Y-88285000D01*
X161104345Y-88285000D01*
X160554510Y-88394369D01*
X160554508Y-88394370D01*
X160554509Y-88394370D01*
X160088381Y-88705826D01*
X160088380Y-88705827D01*
X159930991Y-88810991D01*
X159825827Y-88968380D01*
X155429208Y-93365000D01*
X139210792Y-93365000D01*
X137775000Y-91929208D01*
X137775000Y-90581805D01*
X139181805Y-90581805D01*
X139414358Y-91143258D01*
X139905224Y-91664492D01*
X140558193Y-91958203D01*
X140843000Y-91841858D01*
X140843000Y-90297000D01*
X141097000Y-90297000D01*
X141097000Y-91841858D01*
X141381807Y-91958203D01*
X142034776Y-91664492D01*
X142525642Y-91143258D01*
X142758195Y-90581805D01*
X142641432Y-90297000D01*
X141097000Y-90297000D01*
X140843000Y-90297000D01*
X139298568Y-90297000D01*
X139181805Y-90581805D01*
X137775000Y-90581805D01*
X137775000Y-89758195D01*
X139181805Y-89758195D01*
X139298568Y-90043000D01*
X140843000Y-90043000D01*
X140843000Y-88498142D01*
X141097000Y-88498142D01*
X141097000Y-90043000D01*
X142641432Y-90043000D01*
X142758195Y-89758195D01*
X142525642Y-89196742D01*
X142034776Y-88675508D01*
X141381807Y-88381797D01*
X141097000Y-88498142D01*
X140843000Y-88498142D01*
X140558193Y-88381797D01*
X139905224Y-88675508D01*
X139414358Y-89196742D01*
X139181805Y-89758195D01*
X137775000Y-89758195D01*
X137775000Y-87444345D01*
X137665631Y-86894510D01*
X137249009Y-86270991D01*
X136625489Y-85854369D01*
X135890000Y-85708071D01*
X135154510Y-85854369D01*
X134530991Y-86270991D01*
X134114369Y-86894511D01*
X134005000Y-87444346D01*
X134005001Y-92524345D01*
X133968072Y-92710000D01*
X127615000Y-92710000D01*
X127615000Y-87444345D01*
X127505631Y-86894510D01*
X127089009Y-86270991D01*
X126465489Y-85854369D01*
X125730000Y-85708071D01*
X124994510Y-85854369D01*
X124370991Y-86270991D01*
X123954369Y-86894511D01*
X123845000Y-87444346D01*
X123845001Y-92524341D01*
X123845000Y-92524346D01*
X123845001Y-97009207D01*
X122409208Y-98445000D01*
X115384345Y-98445000D01*
X114834510Y-98554369D01*
X114627693Y-98692560D01*
X113590000Y-98692560D01*
X113342235Y-98741843D01*
X113132191Y-98882191D01*
X112991843Y-99092235D01*
X112942560Y-99340000D01*
X106807000Y-99340000D01*
X106807000Y-83947000D01*
X200533000Y-83947000D01*
X200533000Y-121793000D01*
X200533000Y-121793000D01*
G37*
X200533000Y-121793000D02*
X106807000Y-121793000D01*
X106807000Y-105708865D01*
X112999782Y-105708865D01*
X113030095Y-105834528D01*
X113341149Y-106389246D01*
X113840807Y-106782703D01*
X114453000Y-106955000D01*
X115443000Y-106955000D01*
X115443000Y-105457000D01*
X115697000Y-105457000D01*
X115697000Y-106955000D01*
X116687000Y-106955000D01*
X117299193Y-106782703D01*
X117798851Y-106389246D01*
X118109905Y-105834528D01*
X118140218Y-105708865D01*
X118020740Y-105457000D01*
X115697000Y-105457000D01*
X115443000Y-105457000D01*
X113119260Y-105457000D01*
X112999782Y-105708865D01*
X106807000Y-105708865D01*
X106807000Y-104951135D01*
X112999782Y-104951135D01*
X113119260Y-105203000D01*
X115443000Y-105203000D01*
X115443000Y-103705000D01*
X115697000Y-103705000D01*
X115697000Y-105203000D01*
X118020740Y-105203000D01*
X118140218Y-104951135D01*
X118109905Y-104825472D01*
X117798851Y-104270754D01*
X117299193Y-103877297D01*
X116687000Y-103705000D01*
X115697000Y-103705000D01*
X115443000Y-103705000D01*
X114453000Y-103705000D01*
X113840807Y-103877297D01*
X113341149Y-104270754D01*
X113030095Y-104825472D01*
X112999782Y-104951135D01*
X106807000Y-104951135D01*
X106807000Y-99340000D01*
X112942560Y-99340000D01*
X112942560Y-101320000D01*
X112991843Y-101567765D01*
X113132191Y-101777809D01*
X113342235Y-101918157D01*
X113590000Y-101967440D01*
X114627693Y-101967440D01*
X114834510Y-102105631D01*
X115384345Y-102215000D01*
X122409208Y-102215000D01*
X123845000Y-103650792D01*
X123845001Y-115755655D01*
X123954370Y-116305490D01*
X124370992Y-116929009D01*
X124994511Y-117345631D01*
X125730000Y-117491929D01*
X126465490Y-117345631D01*
X127089009Y-116929009D01*
X127505631Y-116305490D01*
X127615000Y-115755655D01*
X127615000Y-115570000D01*
X149208071Y-115570000D01*
X149354369Y-116305490D01*
X149770991Y-116929009D01*
X150394510Y-117345631D01*
X150944345Y-117455000D01*
X156395655Y-117455000D01*
X156945490Y-117345631D01*
X157569009Y-116929009D01*
X157985631Y-116305490D01*
X158131929Y-115570000D01*
X157985631Y-114834510D01*
X157569009Y-114210991D01*
X156945490Y-113794369D01*
X156395655Y-113685000D01*
X150944345Y-113685000D01*
X150394510Y-113794369D01*
X149770991Y-114210991D01*
X149354369Y-114834510D01*
X149208071Y-115570000D01*
X127615000Y-115570000D01*
X127615000Y-103055649D01*
X127651927Y-102870000D01*
X149208071Y-102870000D01*
X149354369Y-103605490D01*
X149770991Y-104229009D01*
X150394510Y-104645631D01*
X150944345Y-104755000D01*
X156395655Y-104755000D01*
X156945490Y-104645631D01*
X157569009Y-104229009D01*
X157985631Y-103605490D01*
X158131929Y-102870000D01*
X157985631Y-102134510D01*
X157569009Y-101510991D01*
X156945490Y-101094369D01*
X156395655Y-100985000D01*
X150944345Y-100985000D01*
X150394510Y-101094369D01*
X149770991Y-101510991D01*
X149354369Y-102134510D01*
X149208071Y-102870000D01*
X127651927Y-102870000D01*
X127651928Y-102869999D01*
X127615000Y-102684349D01*
X127615000Y-102684345D01*
X127505631Y-102134510D01*
X127089009Y-101510991D01*
X126931618Y-101405826D01*
X125855792Y-100330000D01*
X126931617Y-99254175D01*
X127089009Y-99149009D01*
X127395698Y-98690016D01*
X127505630Y-98525492D01*
X127505630Y-98525491D01*
X127505631Y-98525490D01*
X127615000Y-97975655D01*
X127615000Y-97975651D01*
X127651928Y-97790001D01*
X127615000Y-97604351D01*
X127615000Y-92710000D01*
X133968072Y-92710000D01*
X134114370Y-93445490D01*
X134425826Y-93911618D01*
X134425828Y-93911620D01*
X134530992Y-94069009D01*
X134688381Y-94174173D01*
X136965825Y-96451617D01*
X137070991Y-96609009D01*
X137228382Y-96714174D01*
X137694508Y-97025630D01*
X137694509Y-97025630D01*
X137694510Y-97025631D01*
X138244345Y-97135000D01*
X138244349Y-97135000D01*
X138429999Y-97171928D01*
X138615649Y-97135000D01*
X156024350Y-97135000D01*
X156210000Y-97171928D01*
X156395650Y-97135000D01*
X156395655Y-97135000D01*
X156945490Y-97025631D01*
X157569009Y-96609009D01*
X157674175Y-96451617D01*
X162070793Y-92055000D01*
X164485001Y-92055000D01*
X164485000Y-100144350D01*
X164448072Y-100330000D01*
X164485000Y-100515650D01*
X164485000Y-100515654D01*
X164594369Y-101065489D01*
X165010991Y-101689009D01*
X165168382Y-101794174D01*
X167445825Y-104071617D01*
X167550991Y-104229009D01*
X168009984Y-104535698D01*
X168174508Y-104645630D01*
X168174509Y-104645630D01*
X168174510Y-104645631D01*
X168724345Y-104755000D01*
X168724349Y-104755000D01*
X168909999Y-104791928D01*
X169095649Y-104755000D01*
X179725000Y-104755000D01*
X179725001Y-115755655D01*
X179834370Y-116305490D01*
X180250992Y-116929009D01*
X180874511Y-117345631D01*
X181610000Y-117491929D01*
X182345490Y-117345631D01*
X182969009Y-116929009D01*
X183385631Y-116305490D01*
X183495000Y-115755655D01*
X183495000Y-105695750D01*
X189155000Y-105695750D01*
X189155000Y-106526309D01*
X189251673Y-106759698D01*
X189430301Y-106938327D01*
X189663690Y-107035000D01*
X191484250Y-107035000D01*
X191643000Y-106876250D01*
X191643000Y-105537000D01*
X191897000Y-105537000D01*
X191897000Y-106876250D01*
X192055750Y-107035000D01*
X193876310Y-107035000D01*
X194109699Y-106938327D01*
X194288327Y-106759698D01*
X194385000Y-106526309D01*
X194385000Y-105695750D01*
X194226250Y-105537000D01*
X191897000Y-105537000D01*
X191643000Y-105537000D01*
X189313750Y-105537000D01*
X189155000Y-105695750D01*
X183495000Y-105695750D01*
X183495000Y-104293691D01*
X189155000Y-104293691D01*
X189155000Y-105124250D01*
X189313750Y-105283000D01*
X191643000Y-105283000D01*
X191643000Y-103943750D01*
X191897000Y-103943750D01*
X191897000Y-105283000D01*
X194226250Y-105283000D01*
X194385000Y-105124250D01*
X194385000Y-104293691D01*
X194288327Y-104060302D01*
X194109699Y-103881673D01*
X193876310Y-103785000D01*
X192055750Y-103785000D01*
X191897000Y-103943750D01*
X191643000Y-103943750D01*
X191484250Y-103785000D01*
X189663690Y-103785000D01*
X189430301Y-103881673D01*
X189251673Y-104060302D01*
X189155000Y-104293691D01*
X183495000Y-104293691D01*
X183495000Y-103650792D01*
X184850792Y-102295000D01*
X191955655Y-102295000D01*
X192505490Y-102185631D01*
X192730925Y-102035000D01*
X192920045Y-102035000D01*
X193394043Y-101940716D01*
X193931559Y-101581559D01*
X194290716Y-101044043D01*
X194416835Y-100410000D01*
X194290716Y-99775957D01*
X193931559Y-99238441D01*
X193394043Y-98879284D01*
X192920045Y-98785000D01*
X192730925Y-98785000D01*
X192505490Y-98634369D01*
X191955655Y-98525000D01*
X184737837Y-98525000D01*
X184150000Y-98408072D01*
X184149999Y-98408072D01*
X183414508Y-98554370D01*
X183133936Y-98741843D01*
X182790991Y-98970991D01*
X182685826Y-99128382D01*
X180829208Y-100985000D01*
X169690792Y-100985000D01*
X168255000Y-99549208D01*
X168255000Y-92055000D01*
X169565000Y-92055000D01*
X169565000Y-92895654D01*
X169674369Y-93445489D01*
X170090991Y-94069009D01*
X170714510Y-94485631D01*
X171450000Y-94631929D01*
X172185489Y-94485631D01*
X172809009Y-94069009D01*
X173225631Y-93445490D01*
X173302500Y-93059039D01*
X180218096Y-93059039D01*
X180378959Y-93447423D01*
X180754866Y-93862389D01*
X181260959Y-94101914D01*
X181483000Y-93980629D01*
X181483000Y-92837000D01*
X181737000Y-92837000D01*
X181737000Y-93980629D01*
X181959041Y-94101914D01*
X182465134Y-93862389D01*
X182841041Y-93447423D01*
X183001904Y-93059039D01*
X182879915Y-92837000D01*
X181737000Y-92837000D01*
X181483000Y-92837000D01*
X180340085Y-92837000D01*
X180218096Y-93059039D01*
X173302500Y-93059039D01*
X173335000Y-92895655D01*
X173335000Y-92360961D01*
X180218096Y-92360961D01*
X180340085Y-92583000D01*
X181483000Y-92583000D01*
X181483000Y-91439371D01*
X181737000Y-91439371D01*
X181737000Y-92583000D01*
X182879915Y-92583000D01*
X183001904Y-92360961D01*
X182841041Y-91972577D01*
X182465134Y-91557611D01*
X181959041Y-91318086D01*
X181737000Y-91439371D01*
X181483000Y-91439371D01*
X181260959Y-91318086D01*
X180754866Y-91557611D01*
X180378959Y-91972577D01*
X180218096Y-92360961D01*
X173335000Y-92360961D01*
X173335000Y-90355654D01*
X173371929Y-90170000D01*
X173335000Y-89984345D01*
X173335000Y-87979039D01*
X180218096Y-87979039D01*
X180378959Y-88367423D01*
X180754866Y-88782389D01*
X181260959Y-89021914D01*
X181483000Y-88900629D01*
X181483000Y-87757000D01*
X181737000Y-87757000D01*
X181737000Y-88900629D01*
X181959041Y-89021914D01*
X182465134Y-88782389D01*
X182841041Y-88367423D01*
X183001904Y-87979039D01*
X182879915Y-87757000D01*
X181737000Y-87757000D01*
X181483000Y-87757000D01*
X180340085Y-87757000D01*
X180218096Y-87979039D01*
X173335000Y-87979039D01*
X173335000Y-87444345D01*
X173302501Y-87280961D01*
X180218096Y-87280961D01*
X180340085Y-87503000D01*
X181483000Y-87503000D01*
X181483000Y-86359371D01*
X181737000Y-86359371D01*
X181737000Y-87503000D01*
X182879915Y-87503000D01*
X183001904Y-87280961D01*
X182841041Y-86892577D01*
X182465134Y-86477611D01*
X181959041Y-86238086D01*
X181737000Y-86359371D01*
X181483000Y-86359371D01*
X181260959Y-86238086D01*
X180754866Y-86477611D01*
X180378959Y-86892577D01*
X180218096Y-87280961D01*
X173302501Y-87280961D01*
X173225631Y-86894510D01*
X172809009Y-86270991D01*
X172185490Y-85854369D01*
X171450000Y-85708071D01*
X170714511Y-85854369D01*
X170090992Y-86270991D01*
X169674370Y-86894510D01*
X169565001Y-87444345D01*
X169565001Y-88285000D01*
X166555655Y-88285000D01*
X166370000Y-88248071D01*
X166184346Y-88285000D01*
X161475653Y-88285000D01*
X161290000Y-88248071D01*
X161104346Y-88285000D01*
X161104345Y-88285000D01*
X160554510Y-88394369D01*
X160554508Y-88394370D01*
X160554509Y-88394370D01*
X160088381Y-88705826D01*
X160088380Y-88705827D01*
X159930991Y-88810991D01*
X159825827Y-88968380D01*
X155429208Y-93365000D01*
X139210792Y-93365000D01*
X137775000Y-91929208D01*
X137775000Y-90581805D01*
X139181805Y-90581805D01*
X139414358Y-91143258D01*
X139905224Y-91664492D01*
X140558193Y-91958203D01*
X140843000Y-91841858D01*
X140843000Y-90297000D01*
X141097000Y-90297000D01*
X141097000Y-91841858D01*
X141381807Y-91958203D01*
X142034776Y-91664492D01*
X142525642Y-91143258D01*
X142758195Y-90581805D01*
X142641432Y-90297000D01*
X141097000Y-90297000D01*
X140843000Y-90297000D01*
X139298568Y-90297000D01*
X139181805Y-90581805D01*
X137775000Y-90581805D01*
X137775000Y-89758195D01*
X139181805Y-89758195D01*
X139298568Y-90043000D01*
X140843000Y-90043000D01*
X140843000Y-88498142D01*
X141097000Y-88498142D01*
X141097000Y-90043000D01*
X142641432Y-90043000D01*
X142758195Y-89758195D01*
X142525642Y-89196742D01*
X142034776Y-88675508D01*
X141381807Y-88381797D01*
X141097000Y-88498142D01*
X140843000Y-88498142D01*
X140558193Y-88381797D01*
X139905224Y-88675508D01*
X139414358Y-89196742D01*
X139181805Y-89758195D01*
X137775000Y-89758195D01*
X137775000Y-87444345D01*
X137665631Y-86894510D01*
X137249009Y-86270991D01*
X136625489Y-85854369D01*
X135890000Y-85708071D01*
X135154510Y-85854369D01*
X134530991Y-86270991D01*
X134114369Y-86894511D01*
X134005000Y-87444346D01*
X134005001Y-92524345D01*
X133968072Y-92710000D01*
X127615000Y-92710000D01*
X127615000Y-87444345D01*
X127505631Y-86894510D01*
X127089009Y-86270991D01*
X126465489Y-85854369D01*
X125730000Y-85708071D01*
X124994510Y-85854369D01*
X124370991Y-86270991D01*
X123954369Y-86894511D01*
X123845000Y-87444346D01*
X123845001Y-92524341D01*
X123845000Y-92524346D01*
X123845001Y-97009207D01*
X122409208Y-98445000D01*
X115384345Y-98445000D01*
X114834510Y-98554369D01*
X114627693Y-98692560D01*
X113590000Y-98692560D01*
X113342235Y-98741843D01*
X113132191Y-98882191D01*
X112991843Y-99092235D01*
X112942560Y-99340000D01*
X106807000Y-99340000D01*
X106807000Y-83947000D01*
X200533000Y-83947000D01*
X200533000Y-121793000D01*
G04 #@! TD*
M02*
